<svg width="110.821" height="46.603" viewBox="0 0 110.821 46.603" xmlns="http://www.w3.org/2000/svg"><g id="svgGroup" stroke-linecap="round" fill-rule="nonzero" font-size="9pt" stroke="#66ccff" stroke-width="0.5" fill="#66ccff" style="stroke:#66ccff;stroke-width:0.5;fill:#66ccff"><path d="M 40.157 29.025 Q 40.235 29.162 40.235 29.357 A 0.711 0.711 0 0 1 40.03 29.865 A 0.709 0.709 0 0 1 39.493 30.08 Q 39.278 30.08 39.112 29.982 A 0.683 0.683 0 0 1 38.848 29.689 A 8.943 8.943 0 0 1 38.194 27.882 A 24.19 24.19 0 0 1 37.706 25.47 Q 37.501 24.142 37.374 22.609 A 90.86 90.86 0 0 1 37.169 19.435 A 682.505 682.505 0 0 1 33.878 19.865 Q 32.051 20.099 29.708 20.412 A 86.702 86.702 0 0 1 26.368 20.822 Q 22.188 25.372 17.569 27.726 A 20.247 20.247 0 0 1 8.301 30.08 Q 6.231 30.08 4.717 29.679 A 12.992 12.992 0 0 1 2.217 28.781 Q 1.231 28.283 0.733 27.853 Q 0.235 27.423 0.196 27.384 A 0.687 0.687 0 0 1 0.001 26.876 A 0.717 0.717 0 0 1 0.215 26.349 A 0.694 0.694 0 0 1 0.723 26.134 A 0.709 0.709 0 0 1 1.27 26.369 A 18.237 18.237 0 0 0 1.739 26.769 Q 2.169 27.13 3.018 27.54 A 11.606 11.606 0 0 0 5.176 28.283 Q 6.485 28.615 8.282 28.615 A 16.516 16.516 0 0 0 12.989 27.951 Q 15.235 27.287 17.237 26.222 A 24.656 24.656 0 0 0 20.967 23.79 A 36.083 36.083 0 0 0 24.102 21.017 Q 22.715 21.134 21.348 21.193 A 62.952 62.952 0 0 1 18.653 21.251 A 40.505 40.505 0 0 1 13.672 20.958 A 17.583 17.583 0 0 1 9.512 19.972 A 7.483 7.483 0 0 1 6.651 18.126 A 4.07 4.07 0 0 1 5.586 15.255 Q 5.586 14.474 5.909 13.693 A 7.18 7.18 0 0 1 6.68 12.277 Q 7.129 11.642 7.618 11.242 Q 8.106 10.841 8.458 10.841 A 0.778 0.778 0 0 1 8.965 11.037 Q 9.2 11.232 9.2 11.564 Q 9.2 11.74 9.122 11.906 A 0.612 0.612 0 0 1 8.887 12.169 A 7.49 7.49 0 0 1 8.555 12.443 A 4.457 4.457 0 0 0 7.93 13.078 Q 7.598 13.478 7.325 14.035 A 2.687 2.687 0 0 0 7.051 15.236 A 2.832 2.832 0 0 0 7.823 17.199 A 5.86 5.86 0 0 0 10.069 18.624 Q 11.544 19.201 13.692 19.494 Q 15.84 19.787 18.594 19.787 A 60.33 60.33 0 0 0 21.934 19.689 A 84.46 84.46 0 0 0 25.645 19.396 A 37.355 37.355 0 0 0 27.305 17.443 Q 28.028 16.525 28.536 15.802 Q 29.376 14.611 30.294 13.263 A 181.308 181.308 0 0 0 32.12 10.529 Q 33.028 9.142 33.897 7.785 Q 34.766 6.427 35.528 5.226 A 178.098 178.098 0 0 0 36.895 3.039 A 347.912 347.912 0 0 0 37.891 1.408 A 3.791 3.791 0 0 1 38.243 0.441 A 0.799 0.799 0 0 1 39.004 0.001 A 0.846 0.846 0 0 1 39.571 0.246 Q 39.844 0.49 39.844 0.861 A 1.118 1.118 0 0 1 39.649 1.447 A 5.147 5.147 0 0 1 39.278 1.974 Q 39.219 2.345 39.092 3.556 A 95.264 95.264 0 0 0 38.838 6.515 Q 38.711 8.263 38.624 10.363 Q 38.536 12.462 38.536 14.611 L 38.536 16.193 A 32.47 32.47 0 0 0 38.575 17.775 A 315.086 315.086 0 0 1 42.49 17.297 A 86.833 86.833 0 0 1 42.852 17.257 A 51.542 51.542 0 0 1 44.278 17.111 A 0.771 0.771 0 0 1 44.776 17.316 Q 45.02 17.521 45.02 17.853 A 0.691 0.691 0 0 1 44.835 18.331 Q 44.649 18.537 44.356 18.576 A 61.263 61.263 0 0 0 43.536 18.673 Q 43.067 18.732 42.383 18.81 A 607.102 607.102 0 0 0 40.782 18.996 A 224.105 224.105 0 0 0 38.633 19.259 A 62.567 62.567 0 0 0 38.819 22.335 Q 38.946 23.81 39.131 25.08 A 23.481 23.481 0 0 0 39.571 27.365 A 7.818 7.818 0 0 0 40.157 29.025 Z M 29.512 18.947 Q 31.817 18.634 33.702 18.39 A 2652.14 2652.14 0 0 1 37.11 17.951 Q 37.09 17.111 37.081 16.271 Q 37.071 15.431 37.071 14.572 Q 37.071 11.818 37.169 9.308 Q 37.266 6.798 37.442 4.943 A 4881.521 4881.521 0 0 0 35.713 7.667 Q 34.766 9.162 33.751 10.714 A 210.276 210.276 0 0 1 31.7 13.79 A 194.961 194.961 0 0 1 29.727 16.642 A 33.078 33.078 0 0 1 28.77 17.931 A 101.621 101.621 0 0 1 27.794 19.162 A 17.824 17.824 0 0 0 28.643 19.064 A 98.209 98.209 0 0 1 29.512 18.947 Z M 49.981 24.044 Q 49.883 25.021 49.551 25.744 A 4.43 4.43 0 0 1 48.78 26.935 Q 48.34 27.404 47.881 27.628 Q 47.422 27.853 47.071 27.853 A 1.544 1.544 0 0 1 45.772 27.257 A 2.827 2.827 0 0 1 45.313 25.509 A 8.373 8.373 0 0 1 45.489 23.703 Q 45.665 22.912 45.899 22.326 A 6.931 6.931 0 0 1 46.348 21.378 Q 46.563 21.017 46.661 20.841 A 3.745 3.745 0 0 0 46.768 20.607 A 0.605 0.605 0 0 0 46.817 20.372 Q 46.817 20.08 46.612 19.855 Q 46.407 19.63 46.094 19.63 Q 45.938 19.63 45.792 19.689 Q 45.645 19.747 45.547 19.865 L 45.274 20.236 Q 45.001 20.607 44.688 21.32 A 11.284 11.284 0 0 0 44.112 23.087 A 10.031 10.031 0 0 0 43.848 25.509 Q 43.848 26.388 44.073 27.091 A 3.394 3.394 0 0 0 44.727 28.292 A 3.009 3.009 0 0 0 45.743 29.064 A 3.105 3.105 0 0 0 47.071 29.337 A 3.137 3.137 0 0 0 48.897 28.693 A 5.895 5.895 0 0 0 50.489 26.935 Q 50.86 28.146 51.622 28.8 A 2.834 2.834 0 0 0 53.536 29.455 Q 54.376 29.455 55.108 29.074 A 5.925 5.925 0 0 0 56.465 28.097 Q 57.09 27.501 57.598 26.798 Q 58.106 26.095 58.467 25.46 A 13.808 13.808 0 0 0 59.053 24.328 A 22.927 22.927 0 0 1 59.356 23.673 A 0.691 0.691 0 0 1 58.672 24.122 A 0.757 0.757 0 0 1 58.165 23.917 Q 57.93 23.712 57.93 23.4 Q 57.93 23.283 57.969 23.224 A 1.861 1.861 0 0 0 58.086 22.99 A 4.966 4.966 0 0 0 58.282 22.404 A 18.753 18.753 0 0 0 58.575 21.134 A 12.33 12.33 0 0 1 57.891 21.115 Q 57.54 21.095 57.237 20.978 A 1.131 1.131 0 0 1 56.739 20.607 A 1.128 1.128 0 0 1 56.544 19.904 A 3.084 3.084 0 0 1 56.729 19.005 A 6.019 6.019 0 0 1 57.227 17.892 A 4.652 4.652 0 0 1 57.93 16.945 Q 58.321 16.544 58.711 16.544 Q 59.161 16.544 59.444 16.876 A 2.362 2.362 0 0 1 59.883 17.687 Q 60.04 18.165 60.108 18.693 Q 60.176 19.22 60.176 19.611 Q 60.508 19.611 60.831 19.601 Q 61.153 19.591 61.446 19.591 A 2.592 2.592 0 0 1 63.145 20.08 A 1.975 1.975 0 0 1 63.731 21.681 Q 63.731 22.13 63.672 22.619 A 33.434 33.434 0 0 1 63.536 23.624 A 29.613 29.613 0 0 0 63.399 24.65 Q 63.34 25.158 63.34 25.646 A 2.985 2.985 0 0 0 63.536 26.808 Q 63.731 27.267 64.024 27.54 Q 64.317 27.814 64.649 27.921 A 1.983 1.983 0 0 0 65.254 28.029 Q 66.094 28.029 66.836 27.482 A 7.449 7.449 0 0 0 68.204 26.164 Q 68.829 25.392 69.327 24.533 A 35.316 35.316 0 0 0 70.157 23.029 Q 70.254 22.853 70.43 22.755 Q 70.606 22.658 70.801 22.658 Q 71.153 22.658 71.348 22.882 A 0.741 0.741 0 0 1 71.544 23.38 Q 71.544 23.576 71.465 23.732 A 89.946 89.946 0 0 1 70.42 25.539 Q 69.825 26.544 69.063 27.423 Q 68.301 28.302 67.354 28.908 Q 66.407 29.513 65.274 29.513 A 3.382 3.382 0 0 1 63.946 29.249 A 3.092 3.092 0 0 1 62.862 28.488 A 3.7 3.7 0 0 1 62.129 27.257 A 4.693 4.693 0 0 1 61.856 25.607 A 9.79 9.79 0 0 1 62.051 23.664 A 9.327 9.327 0 0 0 62.247 21.818 A 0.812 0.812 0 0 0 62.081 21.261 A 1.012 1.012 0 0 0 61.348 21.076 L 60.753 21.076 A 13.241 13.241 0 0 0 60.059 21.095 A 9.795 9.795 0 0 1 59.864 22.081 A 15.475 15.475 0 0 1 59.639 22.882 A 13.767 13.767 0 0 1 59.454 23.439 Q 59.376 23.654 59.356 23.673 Q 59.415 23.537 59.415 23.38 A 0.778 0.778 0 0 0 59.219 22.872 Q 59.024 22.638 58.672 22.638 A 0.689 0.689 0 0 0 58.282 22.755 Q 58.106 22.872 58.008 23.087 Q 57.852 23.439 57.618 23.937 A 12.823 12.823 0 0 1 57.061 24.982 Q 56.739 25.529 56.358 26.066 A 6.677 6.677 0 0 1 55.528 27.033 Q 55.079 27.462 54.59 27.726 A 2.074 2.074 0 0 1 53.594 27.99 A 1.479 1.479 0 0 1 52.461 27.531 Q 52.032 27.072 51.817 26.427 A 6.103 6.103 0 0 1 51.534 25.119 A 7.358 7.358 0 0 1 51.49 24.376 A 3.524 3.524 0 0 1 51.504 24.044 L 51.758 20.802 A 0.867 0.867 0 0 0 51.563 20.246 Q 51.368 20.001 51.036 20.001 A 0.73 0.73 0 0 0 50.528 20.197 A 0.779 0.779 0 0 0 50.274 20.685 L 49.981 24.044 Z M 57.891 19.65 L 58.751 19.65 Q 58.751 19.513 58.741 19.289 A 4.792 4.792 0 0 0 58.702 18.849 Q 58.672 18.634 58.624 18.478 A 0.181 0.181 0 0 0 58.516 18.322 A 0.248 0.248 0 0 0 58.37 18.468 Q 58.282 18.615 58.184 18.82 A 3.862 3.862 0 0 0 58.008 19.259 A 5.497 5.497 0 0 0 57.891 19.65 Z M 79.415 35.802 Q 79.415 38.165 79.122 40.148 Q 78.829 42.13 78.262 43.566 A 6.167 6.167 0 0 1 76.856 45.802 A 2.72 2.72 0 0 1 74.922 46.603 Q 74.376 46.603 73.887 46.349 A 2.559 2.559 0 0 1 73.038 45.626 A 3.586 3.586 0 0 1 72.471 44.513 Q 72.266 43.869 72.266 43.068 A 12.096 12.096 0 0 1 72.549 40.548 A 14.016 14.016 0 0 1 73.477 37.775 Q 74.122 36.33 75.176 34.757 A 28.725 28.725 0 0 1 77.774 31.486 A 19.489 19.489 0 0 0 77.569 29.923 Q 77.442 29.201 77.247 28.673 A 2.539 2.539 0 0 0 76.788 27.853 Q 76.524 27.56 76.153 27.56 A 1.148 1.148 0 0 0 75.879 27.599 A 6.455 6.455 0 0 1 75.069 28.419 A 4.234 4.234 0 0 1 74.415 28.869 A 1.843 1.843 0 0 1 73.917 29.064 A 1.805 1.805 0 0 1 73.614 29.103 A 1.197 1.197 0 0 1 72.979 28.917 Q 72.676 28.732 72.676 28.224 A 1.13 1.13 0 0 1 72.803 27.775 A 2.173 2.173 0 0 1 73.223 27.199 Q 73.516 26.896 73.995 26.632 A 4.051 4.051 0 0 1 75.157 26.232 Q 76.446 24.845 77.169 23.683 Q 77.891 22.521 77.891 21.505 Q 77.891 20.626 77.344 20.099 A 1.917 1.917 0 0 0 75.958 19.572 A 3.473 3.473 0 0 0 73.614 20.665 A 10.151 10.151 0 0 0 71.504 23.693 A 0.716 0.716 0 0 1 70.821 24.122 Q 70.489 24.122 70.294 23.888 A 0.778 0.778 0 0 1 70.098 23.38 Q 70.098 23.205 70.176 23.068 Q 71.329 20.705 72.833 19.396 Q 74.336 18.087 75.977 18.087 Q 76.641 18.087 77.256 18.322 A 3.27 3.27 0 0 1 78.34 18.996 Q 78.809 19.435 79.083 20.07 A 3.648 3.648 0 0 1 79.356 21.525 A 4.675 4.675 0 0 1 79.17 22.843 A 6.674 6.674 0 0 1 78.672 24.074 Q 78.36 24.669 77.95 25.216 A 22.948 22.948 0 0 1 77.11 26.271 A 2.266 2.266 0 0 1 77.979 26.935 Q 78.321 27.365 78.545 27.892 A 5.764 5.764 0 0 1 78.887 28.986 A 19.536 19.536 0 0 1 79.083 30.08 Q 79.825 29.279 80.626 28.38 A 49.569 49.569 0 0 0 82.169 26.564 A 30.429 30.429 0 0 0 83.526 24.757 A 10.662 10.662 0 0 0 84.493 23.087 Q 84.59 22.872 84.766 22.765 Q 84.942 22.658 85.157 22.658 A 0.693 0.693 0 0 1 85.694 22.882 A 0.722 0.722 0 0 1 85.899 23.38 Q 85.899 23.537 85.84 23.673 A 12.676 12.676 0 0 1 84.629 25.773 Q 83.848 26.896 82.93 28.019 A 46.912 46.912 0 0 1 81.055 30.177 A 65.432 65.432 0 0 1 79.297 32.013 A 52.322 52.322 0 0 1 79.415 35.802 Z M 77.911 33.576 Q 76.68 35.08 75.879 36.408 A 18.26 18.26 0 0 0 74.6 38.908 Q 74.122 40.08 73.926 41.085 A 9.742 9.742 0 0 0 73.731 42.931 A 3.174 3.174 0 0 0 74.083 44.533 A 1.009 1.009 0 0 0 74.942 45.138 A 1.582 1.582 0 0 0 76.182 44.435 A 6.087 6.087 0 0 0 77.129 42.511 A 16.472 16.472 0 0 0 77.735 39.63 A 27.907 27.907 0 0 0 77.95 36.056 A 74.973 74.973 0 0 0 77.94 34.914 A 108.245 108.245 0 0 0 77.911 33.576 Z M 97.247 21.31 L 96.094 23.693 A 0.702 0.702 0 0 1 95.43 24.122 Q 95.098 24.122 94.893 23.888 A 0.757 0.757 0 0 1 94.688 23.38 Q 94.688 23.205 94.766 23.068 L 96.895 18.615 Q 96.993 18.439 97.169 18.322 A 0.689 0.689 0 0 1 97.559 18.205 Q 97.872 18.205 98.067 18.41 Q 98.262 18.615 98.301 18.908 A 6.876 6.876 0 0 0 98.448 19.767 A 18.233 18.233 0 0 0 98.799 21.105 Q 99.024 21.857 99.327 22.716 Q 99.629 23.576 100.04 24.415 A 67.713 67.713 0 0 1 105.215 17.13 Q 105.411 16.876 105.782 16.876 A 0.717 0.717 0 0 1 106.309 17.091 A 0.694 0.694 0 0 1 106.524 17.599 A 0.677 0.677 0 0 1 106.348 18.068 A 69.555 69.555 0 0 0 100.86 25.88 Q 101.544 26.896 102.364 27.56 Q 103.184 28.224 104.219 28.224 Q 105.137 28.224 105.958 27.697 Q 106.778 27.169 107.452 26.398 Q 108.126 25.626 108.624 24.738 Q 109.122 23.849 109.395 23.126 A 0.692 0.692 0 0 1 110.079 22.638 A 0.693 0.693 0 0 1 110.616 22.863 Q 110.821 23.087 110.821 23.38 A 1.098 1.098 0 0 1 110.782 23.634 Q 110.801 23.595 110.606 24.025 A 13.259 13.259 0 0 1 110.02 25.128 A 19.67 19.67 0 0 1 109.063 26.603 A 10.034 10.034 0 0 1 107.764 28.097 Q 107.032 28.79 106.133 29.249 A 4.19 4.19 0 0 1 104.2 29.708 Q 102.911 29.708 101.885 29.025 Q 100.86 28.341 100.04 27.287 Q 99.708 27.872 99.395 28.458 L 98.77 29.63 Q 98.555 30.04 98.106 30.04 Q 97.774 30.04 97.569 29.806 A 0.757 0.757 0 0 1 97.364 29.298 Q 97.364 29.142 97.461 28.947 A 85.67 85.67 0 0 1 98.262 27.423 A 34.407 34.407 0 0 1 99.122 25.919 A 17.325 17.325 0 0 1 97.989 23.566 A 20.16 20.16 0 0 1 97.247 21.31 Z M 86.836 26.974 A 3.038 3.038 0 0 0 87.891 27.882 A 3.343 3.343 0 0 0 89.473 28.224 A 3.368 3.368 0 0 0 91.211 27.765 Q 91.993 27.306 92.637 26.564 A 9.631 9.631 0 0 0 93.79 24.904 Q 94.297 23.986 94.708 23.068 Q 94.805 22.853 94.981 22.746 Q 95.157 22.638 95.372 22.638 Q 95.704 22.638 95.909 22.872 A 0.757 0.757 0 0 1 96.114 23.38 Q 96.114 23.478 96.094 23.546 A 0.857 0.857 0 0 1 96.036 23.693 A 14.183 14.183 0 0 1 93.096 28.165 A 5.268 5.268 0 0 1 89.493 29.708 A 4.683 4.683 0 0 1 87.266 29.21 A 4.671 4.671 0 0 1 85.723 27.921 A 5.433 5.433 0 0 1 84.825 26.134 A 7.03 7.03 0 0 1 84.532 24.142 Q 84.532 23.146 84.776 22.306 Q 85.02 21.466 85.479 20.841 Q 85.938 20.216 86.573 19.865 A 2.834 2.834 0 0 1 87.969 19.513 A 2.267 2.267 0 0 1 88.858 19.699 A 2.55 2.55 0 0 1 89.649 20.226 Q 90.001 20.568 90.215 21.056 Q 90.43 21.544 90.43 22.169 A 4.113 4.113 0 0 1 90.157 23.673 A 5.057 5.057 0 0 1 89.405 24.982 A 6.403 6.403 0 0 1 88.262 26.095 Q 87.598 26.603 86.836 26.974 Z M 86.251 25.705 A 4.762 4.762 0 0 0 87.354 25.06 Q 87.852 24.669 88.204 24.201 Q 88.555 23.732 88.751 23.214 A 2.939 2.939 0 0 0 88.946 22.169 Q 88.946 21.583 88.653 21.281 Q 88.36 20.978 87.969 20.978 Q 87.442 20.978 87.071 21.271 A 2.213 2.213 0 0 0 86.465 22.033 A 3.939 3.939 0 0 0 86.124 23.078 Q 86.016 23.654 86.016 24.22 Q 86.016 24.572 86.085 24.962 Q 86.153 25.353 86.251 25.705 Z"/></g></svg>
